<svg width="33" height="33" viewBox="0 0 33 33" fill="none" xmlns="http://www.w3.org/2000/svg">
<path fill-rule="evenodd" clip-rule="evenodd" d="M24.7761 12.1435C25.2968 12.6642 25.2968 13.5084 24.7761 14.0291L17.4428 21.3624C16.9221 21.8831 16.0779 21.8831 15.5572 21.3624L8.22386 14.0291C7.70316 13.5084 7.70316 12.6642 8.22386 12.1435C8.74455 11.6228 9.58878 11.6228 10.1095 12.1435L16.5 18.534L22.8905 12.1435C23.4112 11.6228 24.2554 11.6228 24.7761 12.1435Z" fill="white"/>
<path d="M13.5 17.4197L16.5 20.4197M16.5 20.4197L19.5 17.4197M16.5 20.4197V12.4197M25.5 16.4197C25.5 11.4491 21.4706 7.41968 16.5 7.41968C11.5294 7.41968 7.5 11.4491 7.5 16.4197C7.5 21.3902 11.5294 25.4197 16.5 25.4197C21.4706 25.4197 25.5 21.3902 25.5 16.4197Z" stroke="white" stroke-width="2" stroke-linecap="round" stroke-linejoin="round"/>
</svg>
