<svg width="32" height="32" viewBox="0 0 32 32" fill="none" xmlns="http://www.w3.org/2000/svg">
<path fill-rule="evenodd" clip-rule="evenodd" d="M7.72387 20.2762C7.20317 19.7555 7.20317 18.9113 7.72387 18.3906L15.0572 11.0573C15.5779 10.5366 16.4221 10.5366 16.9428 11.0573L24.2762 18.3906C24.7969 18.9113 24.7969 19.7555 24.2762 20.2762C23.7555 20.7969 22.9112 20.7969 22.3905 20.2762L16 13.8857L9.60949 20.2762C9.08879 20.7969 8.24457 20.7969 7.72387 20.2762Z" fill="white"/>
<path d="M13 17L16 20M16 20L19 17M16 20V12M25 16C25 11.0294 20.9706 7 16 7C11.0294 7 7 11.0294 7 16C7 20.9706 11.0294 25 16 25C20.9706 25 25 20.9706 25 16Z" stroke="white" stroke-width="2" stroke-linecap="round" stroke-linejoin="round"/>
</svg>
